<svg width="20" height="21" viewBox="0 0 20 21" fill="none" xmlns="http://www.w3.org/2000/svg">
<path fill-rule="evenodd" clip-rule="evenodd" d="M10 1.5C7.23858 1.5 5 3.73858 5 6.5H1.5H1V7V11V11.5H1.5H2.0625L3.07585 19.0664L3.13393 19.5H3.57143H16.4286H16.8661L16.9241 19.0664L17.9375 11.5H18.5H19V11V7V6.5H18.5H15C15 3.73858 12.7614 1.5 10 1.5ZM14 6.5C14 4.29086 12.2091 2.5 10 2.5C7.79086 2.5 6 4.29086 6 6.5H14ZM5 7.5H2V10.5H2.5H17.5H18V7.5H15H14.5H5.5H5ZM4.00893 18.5L3.07143 11.5H16.9286L15.9911 18.5H4.00893Z" fill="black"/>
</svg>
