<svg width="36" height="36" viewBox="0 0 36 36" fill="none" xmlns="http://www.w3.org/2000/svg">
<rect width="36" height="36" rx="18" transform="matrix(-1 0 0 1 36 0)" fill="white"/>
<path d="M13.3658 10.5C10.0405 10.5 8 13.3625 8 15.7107C8 20.553 13.3328 25.0637 17.4159 28.0731C17.764 28.3297 18.236 28.3297 18.5841 28.0731C22.6673 25.0635 28 20.5526 28 15.7107C28 13.3627 25.9594 10.5 22.6342 10.5C21.1612 10.5 19.8583 11.417 18.7884 12.4873C18.3557 12.9201 17.6445 12.9201 17.2118 12.4873C16.1419 11.417 14.839 10.5 13.366 10.5H13.3658Z" fill="#B6162A"/>
</svg>
