<svg width="36" height="36" viewBox="0 0 36 36" fill="none" xmlns="http://www.w3.org/2000/svg">
<rect width="36" height="36" rx="18" transform="matrix(-1 0 0 1 36 0)" fill="white"/>
<path d="M8.5 15.7107C8.5 13.5972 10.3564 11 13.3658 11H13.366C14.6321 11 15.8116 11.7938 16.8582 12.8408C17.4862 13.4689 18.514 13.4689 19.142 12.8408C20.1886 11.7938 21.3681 11 22.6342 11C25.6435 11 27.5 13.5974 27.5 15.7107C27.5 17.9509 26.2616 20.1737 24.4468 22.2499C22.6399 24.3171 20.3215 26.1714 18.2875 27.6706C18.1157 27.7972 17.8843 27.7972 17.7125 27.6706C15.6785 26.1715 13.3601 24.3173 11.5532 22.2502C9.73843 20.174 8.5 17.9511 8.5 15.7107Z" stroke="black"/>
</svg>
