<svg width="69" height="36" viewBox="0 0 69 36" fill="none" xmlns="http://www.w3.org/2000/svg">
<path d="M66.6393 24.384C65.4119 20.3103 64.6938 17.0423 63.3384 13.0112C62.1962 9.48885 60.9261 7.70627 56.4 7.70627C55.0469 7.70627 53.4806 7.83457 52.4236 8.64033C51.6562 9.26152 51.0907 9.83321 50.6509 10.4274C50.6509 10.4251 50.6554 10.4206 50.6554 10.4184C50.4938 10.6187 50.2447 10.6975 50.045 10.621C49.8857 10.5602 49.8094 10.4206 49.787 10.3734C49.787 10.3734 49.787 10.3779 49.787 10.3801C49.677 10.011 49.5491 9.72968 49.4638 9.58113C48.8624 8.53679 47.1862 8.30722 46.1674 8.30722C43.5891 8.30722 41.0511 8.68309 38.5984 8.68309C36.1457 8.68309 33.6482 8.34998 31.2785 8.34998C30.0241 8.34998 28.8976 8.52554 28.1324 9.11748C28.1324 9.11748 28.1324 9.11523 28.1324 9.11298C27.8654 9.32004 27.5468 9.35605 27.3515 9.21651C27.3089 9.18725 27.2348 9.12198 27.1877 8.98919C27.1877 8.99144 27.1877 8.99369 27.1877 8.99594C26.6357 7.05582 25.5653 4.82985 23.4806 3.02027C20.1954 0.166353 16.3492 0.0560671 14.6977 0.0110526C13.2997 -0.0294603 9.76762 -0.0789763 6.24904 2.23927C5.56911 2.68716 3.08277 4.41347 1.4671 7.70402C0.580719 9.51135 0.520131 10.6412 0.13192 16.9612C0.13192 16.9612 -0.24507 23.1191 0.275536 30.632C0.365296 31.9329 0.544815 33.9924 2.02361 35.1425C2.72373 35.6872 3.6505 36 4.83308 36C8.49079 36 9.4961 33.7133 9.4961 30.578C9.4961 28.7257 9.19989 27.8029 9.09891 26.1868C9.07647 26.0045 9.15501 25.8402 9.28741 25.7795C9.39063 25.7322 9.49385 25.7615 9.52976 25.7729C9.52527 25.7705 9.52078 25.7684 9.51629 25.7662C10.8717 26.2411 13.0551 26.3264 14.4755 26.3264C18.2746 26.3264 21.5127 25.2258 23.8442 23.1506C23.8464 23.1506 23.8509 23.1461 23.8554 23.1416C24.0596 23.0043 24.3693 23.0696 24.5623 23.1821C24.8136 23.3262 24.9056 23.5717 24.9325 23.6503C25.0739 24.5393 25.1995 25.4916 25.1995 26.5607C25.1995 28.4646 24.7844 30.3417 24.7844 32.9165C24.7844 34.4718 25.2915 36 28.5633 36C31.4199 36 32.8942 34.9534 32.8942 33.1033C32.8942 31.5751 32.6182 29.885 32.4791 28.3298C32.3399 27.499 32.2479 26.6392 32.2479 25.8087C32.2479 24.1995 33.0311 22.6442 33.0311 20.9293C33.0311 19.0792 31.5568 18.0326 28.377 18.0326C28.1639 18.0326 27.9641 18.0438 27.7689 18.0574C27.7734 18.0574 27.7801 18.0551 27.7846 18.0528C27.7667 18.0551 27.5355 18.0844 27.3762 17.9066C27.264 17.7805 27.2304 17.6005 27.2887 17.4384C27.2887 17.4407 27.2865 17.4452 27.2842 17.4474C27.457 16.8037 27.5692 16.1915 27.641 15.6378C27.7038 15.298 27.9148 15.0616 28.1414 15.0459C28.1885 15.0436 28.2761 15.0459 28.3838 15.1112C29.0368 15.5726 29.894 15.7976 30.8566 15.7976C31.8193 15.7976 32.9368 15.5883 33.9354 15.5883C35.3312 15.5883 35.4613 16.7182 35.4725 18.2036C35.4748 18.2487 35.4748 18.2937 35.4725 18.3409C35.4748 18.4512 35.4748 18.5615 35.4748 18.674C35.4748 25.9235 34.943 28.154 34.8958 32.3718C34.8958 32.3763 34.8958 32.3808 34.8958 32.3853C34.9789 34.7058 36.341 35.9955 38.677 35.9955C41.0129 35.9955 42.1327 34.7126 42.209 32.5564C42.1596 27.7714 41.547 25.1562 41.547 18.2982C41.547 18.1924 41.547 18.0799 41.547 17.9673V17.8593C41.5672 16.8014 41.731 15.5883 43.0415 15.5883C44.1231 15.5883 45.3708 15.7121 46.4928 15.7121C46.8765 15.7121 47.2378 15.6918 47.5744 15.6401C47.5721 15.6401 47.5699 15.6401 47.5676 15.6423C47.8347 15.6288 48.1556 15.6581 48.3149 15.8674C48.5326 16.151 48.3441 16.6214 48.3822 16.6349C48.1847 17.3641 47.9559 18.1721 47.6776 19.0747C46.2818 23.6143 43.5307 28.962 43.5307 32.3988C43.5307 34.6901 44.6303 35.9212 46.9146 35.9212C50.1729 35.9212 50.0024 33.7155 51.1872 31.422C51.6517 30.488 52.372 30.1054 53.3459 30.1054C55.0805 30.1054 57.4502 30.1054 59.9029 30.1481C62.3152 30.2336 61.7654 35.8762 65.1493 35.8762C66.8839 35.8762 69 35.5791 69 33.3306C69 30.0626 67.4763 27.2199 66.6303 24.3773L66.6393 24.384ZM17.6351 5.58384C18.1624 5.58384 18.5887 6.01148 18.5887 6.5404C18.5887 7.06932 18.1624 7.49696 17.6351 7.49696C17.1077 7.49696 16.6814 7.06932 16.6814 6.5404C16.6814 6.01148 17.1077 5.58384 17.6351 5.58384ZM12.1059 5.64686C12.6332 5.64686 13.0596 6.0745 13.0596 6.60342C13.0596 7.13234 12.6332 7.55998 12.1059 7.55998C11.5785 7.55998 11.1522 7.13234 11.1522 6.60342C11.1522 6.0745 11.5785 5.64686 12.1059 5.64686ZM14.9019 18.4827C12.0924 18.4827 9.8125 16.1983 9.8125 13.3781C9.8125 10.5579 12.0902 8.27346 14.9019 8.27346C17.7136 8.27346 19.9912 10.5579 19.9912 13.3781C19.9912 16.1983 17.7136 18.4827 14.9019 18.4827ZM50.44 26.637C49.9126 26.637 49.4863 26.2094 49.4863 25.6804C49.4863 25.1515 49.9126 24.7239 50.44 24.7239C50.9673 24.7239 51.3937 25.1515 51.3937 25.6804C51.3937 26.2094 50.9673 26.637 50.44 26.637ZM55.9691 26.574C55.4418 26.574 55.0155 26.1463 55.0155 25.6174C55.0155 25.0885 55.4418 24.6609 55.9691 24.6609C56.4965 24.6609 56.9228 25.0885 56.9228 25.6174C56.9228 26.1463 56.4965 26.574 55.9691 26.574Z" fill="url(#paint0_linear_1_4)"/>
<defs>
<linearGradient id="paint0_linear_1_4" x1="5.04318" y1="2.96833" x2="69.7705" y2="28.8541" gradientUnits="userSpaceOnUse">
<stop stop-color="#8FD0CF"/>
<stop offset="1" stop-color="#3AC2C0"/>
</linearGradient>
</defs>
</svg>
