<svg width="37" height="45" viewBox="0 0 37 45" fill="none" xmlns="http://www.w3.org/2000/svg">
<path d="M34.2501 18.8463C34.5577 18.9511 34.7992 19.1926 34.904 19.5001C36.2406 23.4238 35.3373 27.9484 32.1985 31.0872C29.0598 34.226 24.5351 35.1293 20.6115 33.7927C20.3039 33.6879 20.0624 33.4464 19.9576 33.1388C18.621 29.2152 19.5243 24.6905 22.6631 21.5517C25.8018 18.413 30.3265 17.5097 34.2501 18.8463Z" stroke="black"/>
<path d="M1.09824 19.5001C1.20301 19.1926 1.44452 18.9511 1.75209 18.8463C5.67571 17.5097 10.2004 18.413 13.3392 21.5517C16.4779 24.6905 17.3812 29.2152 16.0446 33.1388C15.9398 33.4464 15.6983 33.6879 15.3908 33.7927C11.4671 35.1293 6.94246 34.226 3.8037 31.0872C0.664942 27.9484 -0.238376 23.4238 1.09824 19.5001Z" stroke="black"/>
<path d="M17.5381 1.21302C17.8296 1.06962 18.1712 1.06962 18.4627 1.21302C22.1823 3.04231 24.743 6.88049 24.743 11.3194C24.743 15.7582 22.1823 19.5964 18.4627 21.4257C18.1712 21.5691 17.8296 21.5691 17.5381 21.4257C13.8185 19.5964 11.2578 15.7582 11.2578 11.3194C11.2578 6.88049 13.8185 3.04231 17.5381 1.21302Z" stroke="black"/>
<path d="M6 44.3203H30" stroke="black" stroke-linecap="round"/>
<path d="M18 38.3203V44.3203" stroke="black" stroke-linecap="round"/>
</svg>
