<svg width="200" height="33" viewBox="0 0 200 33" fill="none" xmlns="http://www.w3.org/2000/svg">
<path d="M22.1251 7.11642L12.861 32.1064H10.9162L3.17865 4.73243L0 3.66591V2.91307H11.9199V3.66591L8.28122 4.6906L14.283 26.5856L13.1328 26.8575L21.8741 2.57848H23.9235L33.3549 26.983L31.9538 27.3803L37.4746 4.73243L33.815 3.66591V2.91307H42.5144V3.66591L39.3985 4.77425L32.2466 32.1064H30.3017L20.6821 7.80652L22.1251 7.11642Z" fill="black"/>
<path d="M51.0966 30.7681C52.1561 30.7681 53.0623 30.4753 53.8152 29.8898C54.5819 29.3042 55.1675 28.398 55.5718 27.1712C55.99 25.9443 56.1992 24.3759 56.1992 22.4659C56.1992 20.4584 55.997 18.7784 55.5927 17.4261C55.1884 16.0738 54.6029 15.0491 53.8361 14.352C53.0693 13.655 52.1352 13.3064 51.0339 13.3064C49.9743 13.3064 49.0611 13.6062 48.2944 14.2056C47.5276 14.7912 46.9351 15.6974 46.5168 16.9242C46.1125 18.1511 45.9104 19.7125 45.9104 21.6085C45.9104 23.6022 46.1125 25.2821 46.5168 26.6484C46.9211 28.0146 47.5067 29.0463 48.2734 29.7434C49.0542 30.4265 49.9952 30.7681 51.0966 30.7681ZM50.9502 32.2319C49.0542 32.2319 47.3673 31.8067 45.8895 30.9563C44.4256 30.1059 43.2754 28.9208 42.439 27.4012C41.6164 25.8816 41.2051 24.1389 41.2051 22.1732C41.2051 20.1656 41.6373 18.3881 42.5017 16.8406C43.38 15.2791 44.572 14.0593 46.0777 13.1809C47.5833 12.2887 49.2842 11.8426 51.1802 11.8426C53.0902 11.8426 54.7771 12.2747 56.241 13.1391C57.7048 13.9895 58.848 15.1676 59.6706 16.6733C60.5071 18.1789 60.9253 19.9216 60.9253 21.9013C60.9253 23.9228 60.4862 25.7143 59.6078 27.2757C58.7295 28.8232 57.5375 30.0361 56.0319 30.9145C54.5262 31.7928 52.8323 32.2319 50.9502 32.2319Z" fill="black"/>
<path d="M76.5065 11.968C77.2175 11.968 77.7543 12.1632 78.1167 12.5536C78.4792 12.9439 78.6605 13.4458 78.6605 14.0593C78.6605 14.84 78.4165 15.4604 77.9285 15.9204C77.4406 16.3805 76.8271 16.6105 76.0883 16.6105C75.6979 16.6105 75.3354 16.5617 75.0008 16.4642C74.6662 16.3526 74.3247 16.2481 73.9761 16.1505C73.6276 16.0529 73.2303 16.0041 72.7841 16.0041C72.4217 16.0041 72.0592 16.0598 71.6967 16.1714C71.3482 16.269 70.9996 16.4154 70.6511 16.6105C70.3165 16.8057 69.9889 17.0427 69.6682 17.3215L69.4173 16.4432C70.3374 15.537 71.153 14.7981 71.864 14.2265C72.575 13.6549 73.2024 13.2019 73.7461 12.8673C74.3038 12.5327 74.7987 12.3026 75.2309 12.1772C75.677 12.0377 76.1022 11.968 76.5065 11.968ZM70.1701 15.8159V30.1825L73.3279 31.0608V31.7719H62.9345V31.0608L65.8204 30.2034V16.2969C65.6391 16.1156 65.4161 15.9344 65.1512 15.7531C64.8863 15.5719 64.5657 15.3767 64.1892 15.1676C63.8268 14.9585 63.3946 14.7215 62.8927 14.4566V13.9338L69.6264 11.7589H70.0028L70.1701 15.8159Z" fill="black"/>
<path d="M86.2042 30.2034L89.111 31.0608V31.7719H78.9686V31.0608L81.8545 30.2034V5.86168C81.6732 5.68045 81.4292 5.48527 81.1225 5.27614C80.8158 5.06702 80.4464 4.84396 80.0142 4.60696C79.5959 4.36995 79.115 4.119 78.5712 3.85412V3.33131L85.9951 1.44922H86.3506L86.2042 5.1925V30.2034Z" fill="black"/>
<path d="M105.503 17.5307C105.503 16.3178 105.098 15.321 104.29 14.5402C103.495 13.7595 102.408 13.3692 101.027 13.3692C99.8562 13.3692 98.8594 13.6828 98.0369 14.3102C97.2143 14.9376 96.587 15.8647 96.1548 17.0915C95.7365 18.3044 95.5274 19.8101 95.5274 21.6085C95.5274 23.3512 95.7505 24.8011 96.1966 25.9583C96.6427 27.1154 97.284 27.9798 98.1205 28.5514C98.971 29.123 99.9957 29.4088 101.195 29.4088C102.184 29.4088 103.126 29.2485 104.018 28.9278C104.924 28.5932 105.788 28.0565 106.611 27.3176L106.715 28.4259C105.809 29.1927 105.008 29.827 104.311 30.3289C103.627 30.8169 103 31.2003 102.428 31.4791C101.857 31.7579 101.313 31.9531 100.797 32.0646C100.281 32.1762 99.7586 32.2319 99.2289 32.2319C97.4583 32.2319 95.9457 31.8485 94.6909 31.0818C93.4362 30.301 92.4742 29.2206 91.8051 27.8404C91.1498 26.4462 90.8222 24.836 90.8222 23.0097C90.8222 21.2391 91.101 19.6637 91.6587 18.2835C92.2163 16.9033 92.9901 15.7392 93.9799 14.7912C94.9698 13.8292 96.113 13.0973 97.4095 12.5954C98.72 12.0935 100.114 11.8426 101.592 11.8426C102.359 11.8426 103.112 11.9053 103.85 12.0308C104.589 12.1423 105.328 12.3166 106.067 12.5536C106.82 12.7906 107.573 13.1043 108.326 13.4946L105.503 14.2265V5.61074C105.321 5.44344 105.07 5.25523 104.75 5.04611C104.429 4.83699 104.067 4.62787 103.662 4.41874C103.272 4.19568 102.868 3.97959 102.449 3.77047V3.26858L109.748 1.44922H110.082L109.852 5.08794V28.9487C109.978 29.0602 110.159 29.1857 110.396 29.3251C110.633 29.4506 110.891 29.583 111.17 29.7225C111.449 29.8619 111.727 29.9873 112.006 30.0989C112.285 30.2104 112.543 30.301 112.78 30.3707V30.9772L106.13 32.2737H105.774L105.503 29.0533V17.5307Z" fill="black"/>
<path d="M142.203 11.0479C142.203 9.69558 141.924 8.55238 141.367 7.61831C140.809 6.68423 139.896 5.97322 138.627 5.48527C137.372 4.98337 135.671 4.73243 133.524 4.73243H128.046L128.213 2.91307H136.41C138.976 2.91307 141.039 3.26858 142.6 3.97959C144.176 4.67666 145.326 5.62468 146.051 6.82364C146.776 8.02261 147.138 9.35402 147.138 10.8179C147.138 12.3375 146.762 13.7316 146.009 15.0003C145.27 16.269 144.113 17.2867 142.538 18.0535C140.962 18.8063 138.92 19.1827 136.41 19.1827H128.213L128.046 17.3634H135.616C136.884 17.3634 138.014 17.1264 139.003 16.6524C139.993 16.1644 140.774 15.4534 141.346 14.5193C141.917 13.5713 142.203 12.4142 142.203 11.0479ZM131.412 2.91307V29.9943L134.8 31.019V31.7719H123.173V31.019L126.561 29.9943V4.6906L123.173 3.66591V2.91307H131.412Z" fill="black"/>
<path d="M156.812 11.8426C158.304 11.8426 159.586 12.1562 160.66 12.7836C161.733 13.411 162.584 14.3311 163.211 15.544C163.853 16.743 164.243 18.1999 164.382 19.9147H150.999L151.019 18.4717L161.998 18.1789L160.033 19.12C159.921 17.8374 159.719 16.7709 159.426 15.9204C159.133 15.0561 158.729 14.4148 158.213 13.9965C157.711 13.5643 157.077 13.3482 156.31 13.3482C155.39 13.3482 154.582 13.6131 153.884 14.1429C153.201 14.6727 152.672 15.4813 152.295 16.5687C151.919 17.6422 151.73 19.0015 151.73 20.6466C151.73 22.5008 152.016 24.0483 152.588 25.2891C153.173 26.5299 154.003 27.4639 155.076 28.0913C156.15 28.7047 157.433 29.0114 158.924 29.0114C159.566 29.0114 160.186 28.9348 160.785 28.7814C161.399 28.6141 161.984 28.3701 162.542 28.0495C163.114 27.7149 163.643 27.2897 164.131 26.7738L164.633 27.2967C163.839 28.4538 163.023 29.3948 162.187 30.1198C161.364 30.8447 160.493 31.3815 159.573 31.73C158.666 32.0646 157.677 32.2319 156.603 32.2319C154.832 32.2319 153.25 31.8276 151.856 31.019C150.476 30.2104 149.395 29.0672 148.615 27.5894C147.834 26.1116 147.443 24.3689 147.443 22.3614C147.443 20.4514 147.806 18.7018 148.531 17.1124C149.27 15.5231 150.336 14.2475 151.73 13.2855C153.139 12.3235 154.832 11.8426 156.812 11.8426Z" fill="black"/>
<path d="M178.693 19.3291L178.902 20.6257C177.299 21.0579 175.995 21.49 174.991 21.9222C173.988 22.3405 173.214 22.7727 172.67 23.2188C172.126 23.6649 171.75 24.1389 171.541 24.6408C171.346 25.1288 171.248 25.6725 171.248 26.272C171.248 27.3036 171.527 28.0843 172.085 28.6141C172.642 29.13 173.332 29.3879 174.155 29.3879C174.796 29.3879 175.368 29.2415 175.87 28.9487C176.372 28.6559 176.769 28.2516 177.062 27.7358C177.354 27.206 177.501 26.5996 177.501 25.9165V17.3425C177.501 16.2271 177.215 15.3558 176.643 14.7284C176.072 14.1011 175.173 13.7874 173.946 13.7874C173.416 13.7874 172.865 13.8432 172.294 13.9547C171.736 14.0523 171.241 14.2056 170.809 14.4148L171.792 13.3692C171.736 13.9547 171.659 14.4914 171.562 14.9794C171.478 15.4673 171.374 15.8926 171.248 16.255C171.137 16.6175 170.997 16.8963 170.83 17.0915C170.621 17.3285 170.328 17.5167 169.952 17.6561C169.589 17.7956 169.206 17.8653 168.801 17.8653C168.272 17.8653 167.86 17.7607 167.568 17.5516C167.275 17.3285 167.128 17.0288 167.128 16.6524C167.128 16.1226 167.386 15.5789 167.902 15.0212C168.418 14.4636 169.094 13.9547 169.931 13.4946C170.781 13.0206 171.715 12.6442 172.733 12.3654C173.751 12.0726 174.768 11.9262 175.786 11.9262C177.264 11.9262 178.449 12.1493 179.341 12.5954C180.233 13.0415 180.875 13.6689 181.265 14.4775C181.655 15.2861 181.851 16.255 181.851 17.3843V27.9658C181.851 28.3701 181.913 28.7117 182.039 28.9905C182.164 29.2554 182.345 29.4506 182.582 29.5761C182.819 29.7016 183.105 29.7643 183.44 29.7643C183.802 29.7643 184.172 29.7016 184.548 29.5761C184.939 29.4506 185.336 29.2624 185.74 29.0114V29.9316C184.932 30.796 184.144 31.3954 183.377 31.73C182.624 32.0507 181.864 32.211 181.098 32.211C180.289 32.211 179.62 32.0367 179.09 31.6882C178.574 31.3397 178.191 30.8378 177.94 30.1825C177.703 29.5273 177.571 28.7396 177.543 27.8195L177.689 27.7567C177.466 28.6629 177.09 29.4506 176.56 30.1198C176.044 30.789 175.424 31.3118 174.699 31.6882C173.988 32.0507 173.2 32.2319 172.336 32.2319C170.732 32.2319 169.422 31.8067 168.404 30.9563C167.4 30.0919 166.898 28.8511 166.898 27.2339C166.898 26.4114 167.052 25.6655 167.358 24.9963C167.679 24.3271 168.258 23.6998 169.094 23.1142C169.931 22.5147 171.123 21.9153 172.67 21.3158C174.218 20.7023 176.225 20.0401 178.693 19.3291Z" fill="black"/>
<path d="M194.019 11.8426C194.967 11.8426 195.804 11.9332 196.529 12.1144C197.267 12.2817 198.062 12.5605 198.913 12.9509L199.373 18.2835H198.515L195.985 12.93L197.574 14.7284C196.961 14.1708 196.375 13.7735 195.818 13.5364C195.26 13.2855 194.633 13.16 193.935 13.16C192.82 13.16 191.949 13.397 191.321 13.871C190.708 14.3451 190.401 15.0212 190.401 15.8995C190.401 16.4851 190.548 16.9939 190.84 17.4261C191.133 17.8583 191.607 18.2626 192.262 18.639C192.932 19.0154 193.824 19.4128 194.939 19.831C195.776 20.1377 196.508 20.4932 197.135 20.8975C197.762 21.2879 198.285 21.734 198.703 22.2359C199.136 22.7239 199.456 23.2815 199.665 23.9089C199.888 24.5223 200 25.2263 200 26.021C200 27.3036 199.665 28.412 198.996 29.346C198.327 30.2662 197.421 30.9772 196.278 31.4791C195.134 31.981 193.852 32.2319 192.43 32.2319C191.426 32.2319 190.527 32.1483 189.732 31.981C188.937 31.8137 188.185 31.5627 187.474 31.2281L186.491 25.4564H187.411L190.631 31.3745L188.645 29.9525C189.105 30.2034 189.53 30.4056 189.92 30.5589C190.311 30.6984 190.694 30.796 191.071 30.8517C191.447 30.9075 191.823 30.9354 192.2 30.9354C193.441 30.9354 194.472 30.6565 195.295 30.0989C196.117 29.5273 196.529 28.6629 196.529 27.5058C196.529 26.9899 196.424 26.5368 196.215 26.1465C196.006 25.7422 195.692 25.3867 195.274 25.08C194.87 24.7593 194.368 24.4526 193.768 24.1598C193.169 23.8671 192.479 23.5743 191.698 23.2815C190.652 22.8633 189.788 22.3893 189.105 21.8595C188.422 21.3297 187.913 20.7093 187.578 19.9983C187.244 19.2734 187.076 18.4299 187.076 17.4679C187.076 16.2829 187.39 15.2722 188.017 14.4357C188.645 13.5992 189.481 12.9579 190.527 12.5118C191.586 12.0656 192.75 11.8426 194.019 11.8426Z" fill="black"/>
</svg>
